# xmcd
#
# Track frame offsets:
#	150
#	17495
#	35147
#	51035
#	68382
#	91637
#	105700
#	123255
#	140707
#	161247
#	177482
#	194317
#	212015
#	223267
#	238135
#	254787
# Disc length: 3578 seconds
# Revision: 3
# Processed by: cddbd v1.5.1PL0 Copyright (c) Steve Scherf et al.
#
# Submitted via: libkcddb 0.20
#
DISCID=ee0df810
DTITLE=America - You Can Do Magic
DYEAR=1996
DGENRE=Blues
TTITLE0=You Can Do Magic
TTITLE1=Never Be Lonely
TTITLE2=You Girl
TTITLE3=Right Before Your Eyes
TTITLE4=Inspector Mills
TTITLE5=Love On The Vine
TTITLE6=Desperate Love
TTITLE7=Jody
TTITLE8=Sometimes Lovers
TTITLE9=Even The Score
TTITLE10=Tin Man (Live)
TTITLE11=A Horse With No Name (Live)
TTITLE12=I Need You (Live)
TTITLE13=Sister Golden Hair (LIve)
TTITLE14=Ventura Highway (Live)
TTITLE15=Daisy Jane (Live)
EXTD=
EXTT0=
EXTT1=
EXTT2=
EXTT3=
EXTT4=
EXTT5=
EXTT6=
EXTT7=
EXTT8=
EXTT9=
EXTT10=
EXTT11=
EXTT12=
EXTT13=
EXTT14=
EXTT15=
PLAYORDER=
